<svg xmlns="http://www.w3.org/2000/svg" width="256" height="256" viewBox="0 0 256 256"><title>agenda</title><g style="isolation:isolate"><path d="M87.74,208.11l-8.91-5.18c-1.7-1-2.75-3.08-2.76-6.05L85,202.06C85,205,86,207.13,87.74,208.11Z" fill="none"/><path d="M180,85.82l.18,61.18c0,6-4.19,13.28-9.41,16.29L94.23,207.45c-5.21,3-9.45.6-9.46-5.39l-.18-61.18Z" fill="#f8f8f8"/><path d="M85,202.06l-.17-61.18L75.9,135.7l.17,61.18c0,3,1.06,5.07,2.76,6.05l8.91,5.18C86,207.13,85,205,85,202.06Z" fill="#dbdbdb"/><polygon points="84.81 140.88 75.9 135.7 171.26 80.65 180.17 85.82 84.81 140.88" fill="#dbdbdb"/></g><polygon points="160.16 83.03 151.25 77.85 162.27 71.48 171.18 76.66 160.16 83.03" fill="#2798ba"/><polygon points="171.18 76.66 162.27 71.48 162.24 58.81 171.15 63.99 171.18 76.66" fill="#137999"/><polygon points="138.05 95.79 129.14 90.61 140.16 84.25 149.07 89.42 138.05 95.79" fill="#2798ba"/><polygon points="149.07 89.42 140.16 84.25 140.13 71.58 149.04 76.75 149.07 89.42" fill="#137999"/><polygon points="115.94 108.55 107.03 103.37 118.07 97 126.98 102.18 115.94 108.55" fill="#2798ba"/><polygon points="126.98 102.18 118.07 97 118.03 84.33 126.94 89.51 126.98 102.18" fill="#137999"/><polygon points="93.83 121.32 84.93 116.14 95.96 109.77 104.87 114.95 93.83 121.32" fill="#2798ba"/><polygon points="104.87 114.95 95.96 109.77 95.92 97.1 104.83 102.28 104.87 114.95" fill="#137999"/><path d="M170.63,53.73c5.22-3,9.45-.6,9.47,5.38l.07,26.72L84.81,140.89l-.07-26.72c0-6,4.19-13.28,9.4-16.28ZM104.87,115l0-12.67-11,6.37,0,12.67,11-6.37M127,102.18l0-12.67-11,6.37,0,12.67,11-6.37m22.09-12.76,0-12.67-11,6.37,0,12.67,11-6.37m22.11-12.76,0-12.67-11,6.37,0,12.67,11-6.37" fill="#2085ac"/><path d="M177.35,53.07l-8.91-5.18-.05,0a4.23,4.23,0,0,0-.48-.23l-.09,0-.16-.05-.24-.09-.28-.06-.16,0-.09,0a5.54,5.54,0,0,0-.57-.07h-.78l-.29,0-.26,0-.24.05-.38.08-.21,0a1.72,1.72,0,0,0-.21.07,5.9,5.9,0,0,0-.67.23l-.23.08-.14.07a10.93,10.93,0,0,0-1.19.59L85.23,92.71c-.3.17-.6.37-.9.57l-.28.21-.6.44-.32.27-.53.47-.32.29-.2.19-.2.22c-.22.21-.42.44-.63.66s-.14.14-.2.22-.11.13-.16.19l-.37.45-.24.29-.18.25-.26.36c-.06.08-.13.16-.19.25l-.28.42-.19.27-.07.12c-.17.26-.33.53-.49.8l0,0-.09.16-.32.58-.14.27c-.05.1-.1.19-.14.29a2,2,0,0,0-.13.25l-.3.64-.06.14,0,0c-.12.28-.23.56-.34.84l-.06.15a2.83,2.83,0,0,1-.11.31l-.15.43c0,.11-.07.22-.1.33l-.12.39c0,.08-.05.16-.07.24s-.07.29-.11.43l-.12.48c0,.06,0,.12,0,.17l-.06.35c0,.25-.09.5-.13.75l0,.21c0,.06,0,.13,0,.19a13.28,13.28,0,0,0-.1,1.65l.07,26.72,8.91,5.18-.07-26.72a13.16,13.16,0,0,1,.1-1.65c0-.14,0-.27,0-.4s.08-.5.13-.75.06-.35.1-.52l.12-.48c.06-.23.11-.45.18-.67l.12-.39c.08-.26.16-.51.25-.76,0-.1.08-.21.11-.31.13-.35.27-.69.42-1l.06-.14c.14-.3.28-.6.43-.9,0-.09.09-.19.14-.28.15-.29.3-.57.46-.85l.09-.16c.19-.33.39-.65.59-1l.19-.27c.15-.23.31-.45.47-.68l.26-.35.42-.54.37-.45.36-.41c.2-.23.41-.45.63-.67s.26-.27.4-.4l.32-.3c.17-.16.35-.31.53-.46l.32-.27.6-.44.28-.21c.3-.2.6-.4.9-.57l76.49-44.16a10.21,10.21,0,0,1,1.19-.6l.37-.14a5.9,5.9,0,0,1,.67-.23,3.31,3.31,0,0,1,.42-.12l.38-.08a4.71,4.71,0,0,1,.5-.08l.29,0c.2,0,.4,0,.6,0h.14a4.06,4.06,0,0,1,.7.09l.16,0a4.44,4.44,0,0,1,.52.15l.16.05a5,5,0,0,1,.62.3h0Z" fill="#137999"/><path d="M120.17,82.86l-2.76,1.59c0-.07-.06-.14-.08-.21a25.84,25.84,0,0,0-4.62-7.39l2.81-1.63a35.36,35.36,0,0,1,4.56,7.44Z" fill="#137999"/><path d="M77.77,102.15c-.08-.13-.15-.28-.23-.42a0,0,0,0,1,0,0A3.48,3.48,0,0,0,77.77,102.15Z" fill="#137999"/><path d="M98,95.67l-2.75,1.59a25.88,25.88,0,0,0-4.77-7.57l2.82-1.63A36.19,36.19,0,0,1,98,95.67Z" fill="#137999"/><polygon points="115.92 129.99 115.96 144.3 103.51 151.49 103.47 137.17 115.92 129.99" fill="#afe7f9"/><polygon points="133.78 139.09 133.82 153.4 121.37 160.59 121.33 146.28 133.78 139.09" fill="#afe7f9"/><polygon points="133.73 119.7 133.77 134.01 121.31 141.21 121.27 126.89 133.73 119.7" fill="#afe7f9"/><polygon points="151.59 128.81 151.63 143.12 139.18 150.31 139.14 136 151.59 128.81" fill="#afe7f9"/><polygon points="151.54 109.42 151.58 123.73 139.12 130.92 139.08 116.61 151.54 109.42" fill="#afe7f9"/><polygon points="169.4 118.53 169.44 132.84 156.99 140.03 156.95 125.71 169.4 118.53" fill="#83cce2"/><polygon points="169.34 99.14 169.38 113.45 156.94 120.64 156.9 106.33 169.34 99.14" fill="#83cce2"/><polygon points="116.03 168.99 116.07 183.3 103.62 190.49 103.58 176.18 116.03 168.99" fill="#afe7f9"/><polygon points="115.97 149.37 116.01 163.69 103.56 170.87 103.52 156.56 115.97 149.37" fill="#afe7f9"/><polygon points="133.84 158.71 133.88 173.02 121.42 180.21 121.38 165.9 133.84 158.71" fill="#83cce2"/></svg>