<svg height='100px' width='100px'  fill="#000000" xmlns="http://www.w3.org/2000/svg" xmlns:xlink="http://www.w3.org/1999/xlink" version="1.1" x="0px" y="0px" viewBox="0 0 100 100" enable-background="new 0 0 100 100" xml:space="preserve"><path d="M41.4,58.6l0.1,27.9c-0.1,4.7,3.8,8.6,8.5,8.5c4.8,0.1,8.6-3.8,8.6-8.5V58.6h27.8c4.7,0.1,8.6-3.8,8.6-8.6  c0-4.7-3.8-8.5-8.6-8.5H58.6V13.6C58.6,8.8,54.8,5,50,5c-4.7,0-8.6,3.8-8.5,8.6v27.9H13.6C8.8,41.5,5,45.3,5,50  c0,4.8,3.8,8.7,8.6,8.6H41.4z"></path></svg>